<svg xmlns="http://www.w3.org/2000/svg" width="64" height="64" viewBox="0 0 64 64" fill="none">
  <defs>
    <linearGradient id="bg" x1="8" y1="6" x2="56" y2="58" gradientUnits="userSpaceOnUse">
      <stop offset="0" stop-color="#0f172a" />
      <stop offset="1" stop-color="#1e293b" />
    </linearGradient>
    <linearGradient id="top" x1="32" y1="14" x2="32" y2="30" gradientUnits="userSpaceOnUse">
      <stop offset="0" stop-color="#7dd3fc" />
      <stop offset="1" stop-color="#38bdf8" />
    </linearGradient>
    <linearGradient id="left" x1="18" y1="24" x2="32" y2="49" gradientUnits="userSpaceOnUse">
      <stop offset="0" stop-color="#0ea5e9" />
      <stop offset="1" stop-color="#0284c7" />
    </linearGradient>
    <linearGradient id="right" x1="46" y1="24" x2="32" y2="49" gradientUnits="userSpaceOnUse">
      <stop offset="0" stop-color="#38bdf8" />
      <stop offset="1" stop-color="#0369a1" />
    </linearGradient>
  </defs>

  <rect x="4" y="4" width="56" height="56" rx="14" fill="url(#bg)" />

  <path d="M32 14L46 22L32 30L18 22L32 14Z" fill="url(#top)" />
  <path d="M18 22L32 30V50L18 42V22Z" fill="url(#left)" />
  <path d="M46 22L32 30V50L46 42V22Z" fill="url(#right)" />

  <path d="M32 14L46 22M32 14L18 22M32 30L46 22M32 30L18 22M32 30V50" stroke="#e2e8f0" stroke-width="1.5" stroke-linecap="round" stroke-linejoin="round" />

  <path d="M11 46H23M11 40H19M11 34H15" stroke="#94a3b8" stroke-width="1.5" stroke-linecap="round" opacity="0.8" />
  <circle cx="50" cy="13" r="3" fill="#f59e0b" />
</svg>
